<svg width="24" height="24" viewBox="0 0 24 24" fill="none" xmlns="http://www.w3.org/2000/svg">
<g clip-path="url(#clip0_210_5067)">
<path fill-rule="evenodd" clip-rule="evenodd" d="M22.1782 9.21121C23.6163 7.773 23.1213 5.02293 21.0508 2.95171C18.9817 0.878018 16.2317 0.383747 14.7975 1.82196C13.8297 2.78943 13.6676 4.68599 13.9906 6.25799L13.6138 6.52757L12.3174 5.22981C12.0204 4.9325 11.5402 4.9325 11.2432 5.22981C10.9461 5.52588 10.9461 6.009 11.2432 6.30506L12.5036 7.56674L7.06524 13.0106L6.81897 13.257L3.2412 16.8383C2.94419 17.1343 2.94419 17.6175 3.2412 17.9136L3.57906 18.253L2.40585 19.4285C2.10884 19.7246 2.10884 20.2078 2.40585 20.5038L2.41267 20.5107L1.22275 21.7017C0.925748 21.9978 0.925748 22.4809 1.22275 22.777C1.37126 22.9257 1.56556 23 1.75985 23C1.95415 23 2.14844 22.9257 2.29695 22.777L3.48685 21.5859L3.51965 21.6187C3.66816 21.7674 3.86246 21.8417 4.05675 21.8417C4.25105 21.8417 4.44534 21.7674 4.59385 21.6187L5.76828 20.4444L6.09747 20.7752C6.23979 20.9188 6.43408 20.9981 6.6358 20.9981C6.83752 20.9981 7.03059 20.9188 7.17414 20.7752L10.9982 16.9461C10.9982 16.946 10.9982 16.946 10.9982 16.946L16.4354 11.5024L17.8295 12.8978C17.978 13.0465 18.1723 13.1208 18.3666 13.1208C18.5608 13.1208 18.7552 13.0465 18.9036 12.8978C19.2007 12.6017 19.2007 12.1186 18.9036 11.8225L17.4785 10.3959L17.7478 10.0189C19.3183 10.3422 21.2129 10.1799 22.1782 9.21121ZM10.4604 15.3337L8.67654 13.5482L13.5779 8.642L15.3611 10.4271L10.4604 15.3337ZM16.8097 8.71446L16.3884 9.30474L14.7041 7.61877L15.2937 7.19697C15.5573 7.00868 15.6724 6.67545 15.582 6.36452C15.1589 4.91516 15.3952 3.37413 15.8717 2.8972C16.6662 2.10563 18.5819 2.63334 19.9766 4.02697C21.3689 5.42182 21.8961 7.34191 21.1041 8.13597C20.625 8.61165 19.088 8.8495 17.6413 8.42583C17.3296 8.34036 16.9966 8.45185 16.8097 8.71446Z" fill="#333333"/>
</g>
<defs>
<clipPath id="clip0_210_5067">
<rect width="24" height="24" fill="white"/>
</clipPath>
</defs>
</svg>
