<svg width="24" height="24" viewBox="0 0 24 24" fill="none" xmlns="http://www.w3.org/2000/svg">
<g clip-path="url(#clip0_210_5088)">
<line x1="22" y1="12" x2="6" y2="12" stroke="#333333" stroke-width="2" stroke-linecap="round" stroke-dasharray="4 4"/>
<rect x="23" y="1" width="8" height="10" rx="1" transform="rotate(90 23 1)" fill="#333333"/>
<circle cx="18" cy="3" r="1" fill="white"/>
<rect x="23" y="15" width="8" height="10" rx="1" transform="rotate(90 23 15)" fill="#333333"/>
<circle cx="18" cy="21" r="1" fill="white"/>
<path fill-rule="evenodd" clip-rule="evenodd" d="M3.07114 4.82843C3.07114 5.33823 3.45262 5.75893 3.9457 5.82064L4.07114 5.82843L4.51934 5.82699C4.36537 5.95931 4.21587 6.09791 4.07114 6.24264C0.946944 9.36684 0.946944 14.4322 4.07114 17.5563C4.46166 17.9469 5.09483 17.9469 5.48535 17.5563C5.87588 17.1658 5.87588 16.5327 5.48535 16.1421C3.14221 13.799 3.14221 10 5.48535 7.65685C5.61763 7.52458 5.75505 7.39922 5.89724 7.28095L5.89957 7.65685C5.89957 8.20914 6.34728 8.65685 6.89957 8.65685C7.40937 8.65685 7.83007 8.27537 7.89177 7.78229L7.89957 7.65685L7.89957 4.82843C7.89957 4.31863 7.51808 3.89793 7.025 3.83622L6.89957 3.82843L4.07114 3.82843C3.51885 3.82843 3.07114 4.27614 3.07114 4.82843Z" fill="#333333"/>
<path fill-rule="evenodd" clip-rule="evenodd" d="M5.4734 6.24509C5.8421 6.60155 5.87764 7.17288 5.57348 7.57058L5.49725 7.6591L5.3416 7.81989C3.13803 10.1776 3.19669 13.8677 5.48543 16.1564C5.61763 16.2886 5.75497 16.4139 5.89708 16.5321L5.89964 16.1564C5.89964 15.6041 6.34736 15.1564 6.89964 15.1564C7.45193 15.1564 7.89964 15.6041 7.89964 16.1564L7.89964 18.9848C7.89964 19.5371 7.45193 19.9848 6.89964 19.9848L4.07121 19.9848C3.51893 19.9848 3.07122 19.5371 3.07121 18.9848C3.07121 18.4326 3.51893 17.9848 4.07121 17.9848L4.51966 17.9865C4.3656 17.8541 4.21602 17.7154 4.07121 17.5706C1.07924 14.5786 0.945395 9.79125 3.722 6.62969L3.89209 6.44198L4.05939 6.26894C4.44327 5.87189 5.07635 5.86121 5.4734 6.24509Z" fill="#333333"/>
</g>
<defs>
<clipPath id="clip0_210_5088">
<rect width="24" height="24" fill="white"/>
</clipPath>
</defs>
</svg>
